<svg width="519" height="383" viewBox="0 0 519 383" fill="none" xmlns="http://www.w3.org/2000/svg">
<path d="M171.042 287.821C175.777 288.922 180.08 291.402 183.407 294.946C185.24 296.865 186.832 299 188.146 301.304C188.208 301.555 179.614 307.329 174.401 310.549C174.212 310.677 173.461 309.86 172.61 308.602C171.658 306.966 170.307 305.597 168.682 304.624C167.058 303.652 165.213 303.106 163.321 303.04C157.33 302.628 153.47 305.766 153.498 311.011C153.446 312.3 153.74 313.579 154.349 314.716C155.667 317.441 158.114 319.077 165.802 322.409C179.953 328.499 186.027 332.516 189.776 338.223C191.895 341.829 193.201 345.854 193.6 350.018C194 354.181 193.485 358.382 192.09 362.325C190.174 366.649 187.135 370.382 183.289 373.136C179.443 375.889 174.93 377.563 170.218 377.983C165.21 378.558 160.15 378.506 155.155 377.828C147.504 376.57 140.456 372.898 135.041 367.348C132.995 365.044 131.263 362.48 129.89 359.722C130.468 359.292 131.076 358.906 131.709 358.565C132.588 358.064 135.915 356.151 139.052 354.332L144.748 350.994L145.938 352.73C147.943 355.597 150.495 358.039 153.448 359.916C156.429 361.552 159.807 362.327 163.203 362.155C166.599 361.983 169.881 360.871 172.683 358.943C174.128 357.535 175.031 355.663 175.234 353.655C175.438 351.647 174.928 349.632 173.795 347.963C172.26 345.765 169.123 343.919 160.206 340.053C153.214 337.695 146.846 333.787 141.577 328.622C139.068 325.763 137.215 322.389 136.148 318.737C135.359 314.578 135.243 310.318 135.803 306.122C136.85 301.292 139.356 296.902 142.982 293.545C146.608 290.188 151.178 288.026 156.073 287.354C161.058 286.758 166.104 286.915 171.042 287.821ZM124.634 296.07L124.695 304.158H98.9406V377.294H80.779V304.175H55.0247V296.231C54.9562 293.511 55.0304 290.789 55.2472 288.077C55.3417 287.949 71.0002 287.888 89.985 287.921L124.534 288.016L124.634 296.07Z" fill="#007ACC"/>
<path d="M62.9286 115.107L55 16H150.143L142.215 115.107L102.572 127L62.9286 115.107Z" fill="#1172B8"/>
<path d="M142.215 23.9287H102.572V121.054L134.286 111.143L142.215 23.9287Z" fill="#33AADD"/>
<path d="M116.447 73.4824H76.8037L74.8215 59.6073L106.536 49.6966H74.8215L72.8394 37.8037H134.286L132.304 51.6788L106.536 61.5895H130.322L126.357 99.2503L102.572 107.179L78.7858 99.2503L76.8037 79.4288H88.6965L90.6787 89.3396L102.572 93.3039L114.464 89.3396L116.447 73.4824Z" fill="white"/>
<path d="M161.5 228.25L155 147H233L226.5 228.25L194 238L161.5 228.25Z" fill="#E44D26"/>
<path d="M226.5 153.5H194V233.125L220 225L226.5 153.5Z" fill="#F16529"/>
<path d="M172.875 194.125L169.625 163.25H220L218.375 173H179.375L181 184.375H216.75L213.5 215.25L194 221.75L174.5 215.25L172.875 199H182.625L184.25 207.125L194 210.375L203.75 207.125L205.375 194.125H172.875Z" fill="white"/>
<path d="M404 26.4281C394.605 13.537 380.754 4.59831 365.137 1.3486C349.52 -1.9011 333.253 0.770216 319.496 8.84359L271.364 38.6098C264.912 42.4977 259.355 47.7051 255.056 53.8906C250.758 60.0762 247.815 67.1003 246.42 74.5026C244.132 86.884 246.155 99.6757 252.153 110.747C248.042 116.791 245.234 123.623 243.905 130.81C242.537 138.314 242.722 146.018 244.447 153.447C246.172 160.876 249.402 167.873 253.937 174.005C263.332 186.897 277.182 195.839 292.799 199.094C308.416 202.349 324.686 199.684 338.449 191.618L386.588 161.859C393.037 157.969 398.593 152.761 402.891 146.576C407.19 140.391 410.134 133.368 411.531 125.966C413.834 113.576 411.81 100.77 405.799 89.6938C409.913 83.6514 412.725 76.8184 414.054 69.63C415.421 62.1242 415.235 54.4177 413.505 46.9869C411.776 39.5561 408.541 32.559 404 26.4281Z" fill="#FF3E00"/>
<path d="M314.802 176.477C307.276 178.408 299.344 178.033 292.033 175.402C284.723 172.772 278.371 168.006 273.8 161.723C271.063 158.04 269.112 153.834 268.067 149.366C267.021 144.898 266.905 140.263 267.724 135.748C267.996 134.265 268.377 132.804 268.863 131.377L269.773 128.69L272.238 130.395C277.96 134.47 284.326 137.556 291.069 139.524L292.825 140.047L292.646 141.745C292.44 144.216 293.129 146.678 294.588 148.682C295.959 150.621 297.889 152.097 300.121 152.911C302.352 153.725 304.779 153.84 307.077 153.239C308.116 152.969 309.108 152.547 310.023 151.985L358.033 122.219C359.202 121.51 360.209 120.564 360.99 119.443C361.772 118.321 362.309 117.048 362.568 115.705C362.827 114.352 362.805 112.96 362.504 111.615C362.203 110.271 361.63 109.002 360.82 107.888C359.441 105.992 357.526 104.554 355.321 103.759C353.116 102.965 350.723 102.85 348.452 103.431C347.408 103.701 346.411 104.126 345.493 104.692L327.063 116.042C324.033 117.917 320.738 119.323 317.289 120.213C309.757 122.148 301.817 121.775 294.5 119.143C287.182 116.511 280.824 111.741 276.251 105.451C273.532 101.756 271.601 97.5422 270.577 93.0705C269.552 88.5988 269.457 83.9644 270.296 79.4543C271.142 75.0114 272.911 70.7957 275.49 67.0802C278.069 63.3647 281.399 60.2322 285.265 57.8856L333.332 28.1194C336.362 26.2471 339.657 24.8435 343.106 23.9562C350.639 22.0167 358.58 22.3865 365.899 25.0176C373.218 27.6486 379.578 32.4193 384.151 38.7103C386.888 42.3937 388.839 46.5997 389.884 51.0677C390.929 55.5357 391.046 60.1708 390.228 64.6858C389.956 66.1689 389.575 67.6299 389.089 69.0569L388.178 71.744L385.713 70.0458C379.995 65.9649 373.628 62.8785 366.882 60.9167L365.127 60.3864L365.306 58.6882C365.512 56.2168 364.82 53.7541 363.357 51.7518C361.982 49.8539 360.068 48.4138 357.863 47.6189C355.658 46.8239 353.266 46.711 350.996 47.2948C349.956 47.564 348.963 47.9892 348.051 48.5559L299.883 78.2218C298.714 78.9268 297.707 79.8708 296.927 80.992C296.148 82.1133 295.615 83.3865 295.362 84.7282C295.097 86.0825 295.115 87.477 295.416 88.8238C295.717 90.1705 296.294 91.4404 297.11 92.5531C298.49 94.4473 300.406 95.884 302.611 96.6773C304.816 97.4706 307.208 97.5841 309.478 97.003C310.52 96.7319 311.517 96.3094 312.437 95.749L330.796 84.3914C333.824 82.516 337.119 81.1122 340.57 80.2282C348.102 78.2927 356.042 78.6645 363.36 81.2952C370.679 83.9259 377.038 88.6943 381.615 94.9823C384.344 98.6689 386.289 102.876 387.328 107.344C388.367 111.812 388.478 116.445 387.655 120.958C386.815 125.406 385.048 129.627 382.469 133.347C379.89 137.066 376.557 140.201 372.686 142.548L324.626 172.314C321.598 174.19 318.303 175.593 314.852 176.477" fill="white"/>
<path d="M309.75 271.667C319.05 234.556 342.3 216 379.5 216C435.3 216 442.275 257.75 470.175 264.708C488.775 269.347 505.05 262.389 519 243.833C509.7 280.944 486.45 299.5 449.25 299.5C393.45 299.5 386.475 257.75 358.575 250.792C339.975 246.153 323.7 253.111 309.75 271.667ZM240 355.167C249.3 318.056 272.55 299.5 309.75 299.5C365.55 299.5 372.525 341.25 400.425 348.208C419.025 352.847 435.3 345.889 449.25 327.333C439.95 364.444 416.7 383 379.5 383C323.7 383 316.725 341.25 288.825 334.292C270.225 329.653 253.95 336.611 240 355.167Z" fill="#44A8B3"/>
<g clip-path="url(#clip0_333_11)">
<path fill-rule="evenodd" clip-rule="evenodd" d="M51.486 170.632C66.527 170.632 79.367 175.84 88.556 184.396C89.782 184.017 90.821 183.629 91.674 183.231C94.28 182.016 97.702 179.525 101.939 175.757C101.251 182.32 100.512 187.138 99.723 190.211C99.3 191.857 98.646 193.85 97.759 196.189C100.166 200.57 101.874 205.301 102.821 210.209C106.446 228.379 100.238 236.414 85.833 240.899C85.941 241.439 86.026 242.019 86.086 242.64C86.601 247.955 83.913 256.539 80.686 256.539C78.564 256.539 77.184 253.583 75.704 249.269C75.241 254.265 72.964 260 70.325 260C68.103 260 66.695 256.76 65.133 252.111L64.913 251.454C64.547 250.344 64.169 249.162 63.768 247.932C63.668 248.406 63.563 248.892 63.454 249.384L63.32 249.977C62.208 254.832 60.594 260 57.987 260C54.96 260 56.62 250.471 51.517 246.433C25.644 247.843 3.879 238.279 3.879 210.683C3.879 205.605 5.081 200.644 7.284 196.04C6.90012 195.288 6.53336 194.528 6.184 193.76C4.467 189.97 2.405 184.232 0 176.55C6.153 181.14 10.872 183.875 14.157 184.754C14.486 184.842 14.828 184.919 15.184 184.984C23.801 176.351 36.684 170.632 51.486 170.632ZM45.45 207.86C36.708 207.86 29.621 214.742 29.621 223.232C29.621 231.722 36.708 238.604 45.45 238.604C54.191 238.604 61.278 231.722 61.278 223.232C61.278 214.846 54.363 208.028 45.768 207.862L45.45 207.86ZM67.916 227.06C65.271 227.06 63.876 232.708 63.876 235.242C63.876 237.221 64.54 238.313 65.622 238.512C68.248 238.756 67.447 234.929 68.754 234.929C70.148 234.929 71.78 238.844 73.146 238.313C74.768 237.347 74.148 235.243 73.588 233.579C71.615 229.399 70.561 227.06 67.916 227.06ZM45.816 210.079C53.365 210.079 59.484 215.941 59.484 223.172C59.484 230.403 53.364 236.265 45.816 236.265C45.352 236.265 44.893 236.243 44.44 236.199C51.343 235.539 56.732 229.958 56.732 223.172C56.732 216.386 51.342 210.805 44.441 210.144C44.893 210.101 45.352 210.079 45.816 210.079ZM85.126 206.959C79.102 206.959 74.219 213.003 74.219 220.459C74.219 227.915 79.102 233.96 85.126 233.96C91.15 233.96 96.033 227.915 96.033 220.46C96.033 213.003 91.15 206.959 85.126 206.959ZM85.478 209.187C90.508 209.187 94.585 214.226 94.585 220.442C94.585 226.657 90.508 231.696 85.478 231.696C85.0191 231.696 84.5612 231.654 84.11 231.57C88.49 230.754 91.849 226.083 91.849 220.442C91.849 214.801 88.49 210.129 84.11 209.313C84.5612 209.229 85.0191 209.187 85.478 209.187ZM87.572 165.897C87.922 166.124 88.02 166.591 87.794 166.941L86.002 169.701C85.9037 169.853 85.7542 169.964 85.5808 170.015C85.4073 170.065 85.2215 170.052 85.057 169.977L84.959 169.923C84.8759 169.869 84.8043 169.799 84.7482 169.718C84.6921 169.636 84.6526 169.544 84.632 169.447C84.6114 169.351 84.61 169.251 84.628 169.153C84.6461 169.056 84.6831 168.963 84.737 168.88L86.529 166.12C86.5828 166.037 86.6525 165.965 86.7341 165.909C86.8156 165.853 86.9074 165.813 87.0043 165.792C87.1012 165.772 87.2011 165.77 87.2986 165.788C87.396 165.806 87.4889 165.843 87.572 165.897ZM15.972 165.169L16.042 165.256L17.694 167.616C17.8048 167.78 17.8468 167.981 17.8109 168.175C17.7749 168.37 17.664 168.542 17.502 168.656C17.3399 168.769 17.1398 168.815 16.9447 168.782C16.7496 168.749 16.5751 168.641 16.459 168.481L14.807 166.121C14.6964 165.965 14.6492 165.773 14.6748 165.584C14.7004 165.394 14.7969 165.222 14.9449 165.101C15.0928 164.98 15.2812 164.92 15.4719 164.932C15.6625 164.945 15.8413 165.03 15.972 165.169ZM53.954 140L55.663 154.476L62.034 147.315L62.199 165.141L60.936 164.861C57.252 164.043 53.91 163.636 50.912 163.636C47.936 163.636 45.147 164.038 42.54 164.84L41.136 165.273L42.286 142.977L48.114 153.995L53.954 140ZM52.831 148.03L48.333 158.808L43.955 150.531L43.338 162.482L43.469 162.45C45.769 161.883 48.186 161.593 50.722 161.58L50.912 161.579C53.66 161.579 56.659 161.901 59.912 162.544L60.119 162.585L60.027 152.665L54.157 159.262L52.831 148.03ZM76.143 159.57C76.3354 159.625 76.498 159.754 76.5951 159.929C76.6922 160.104 76.7159 160.311 76.661 160.503L76.434 161.294C76.3839 161.469 76.272 161.62 76.119 161.719C75.9661 161.819 75.7824 161.859 75.602 161.833L75.502 161.811C75.4067 161.784 75.3177 161.738 75.24 161.676C75.1624 161.615 75.0977 161.539 75.0496 161.452C75.0014 161.365 74.9709 161.27 74.9596 161.171C74.9484 161.073 74.9567 160.973 74.984 160.878L75.211 160.087C75.2661 159.895 75.3952 159.733 75.57 159.636C75.7448 159.539 75.9509 159.515 76.143 159.57ZM30.594 158.72L31.018 160.026C31.077 160.208 31.0648 160.405 30.9839 160.578C30.903 160.751 30.7593 160.887 30.582 160.959C30.4047 161.03 30.207 161.031 30.0287 160.962C29.8505 160.893 29.7052 160.759 29.622 160.587L29.584 160.492L29.16 159.187C29.1018 158.998 29.1203 158.793 29.2115 158.618C29.3027 158.442 29.4594 158.309 29.6476 158.248C29.8358 158.187 30.0406 158.202 30.2177 158.291C30.3947 158.379 30.5299 158.534 30.594 158.721V158.72Z" fill="black"/>
</g>
<defs>
<clipPath id="clip0_333_11">
<rect width="104" height="120" fill="white" transform="translate(0 140)"/>
</clipPath>
</defs>
</svg>
